<mxfile host="app.diagrams.net" agent="Mozilla/5.0 (Windows NT 10.0; Win64; x64) AppleWebKit/537.36 (KHTML, like Gecko) Chrome/128.0.0.0 Safari/537.36 OPR/114.0.0.0" version="26.0.5">
  <diagram id="C5RBs43oDa-KdzZeNtuy" name="Page-1">
    <mxGraphModel dx="753" dy="429" grid="1" gridSize="10" guides="1" tooltips="1" connect="1" arrows="1" fold="1" page="1" pageScale="1" pageWidth="827" pageHeight="1169" math="0" shadow="0">
      <root>
        <mxCell id="WIyWlLk6GJQsqaUBKTNV-0" />
        <mxCell id="WIyWlLk6GJQsqaUBKTNV-1" parent="WIyWlLk6GJQsqaUBKTNV-0" />
        <mxCell id="hak3TevOIR2K7441Awrj-30" value="User" style="shape=datastore;whiteSpace=wrap;html=1;" vertex="1" parent="WIyWlLk6GJQsqaUBKTNV-1">
          <mxGeometry x="370" y="310" width="60" height="60" as="geometry" />
        </mxCell>
        <mxCell id="hak3TevOIR2K7441Awrj-33" value="Actor" style="shape=umlActor;verticalLabelPosition=bottom;verticalAlign=top;html=1;outlineConnect=0;" vertex="1" parent="WIyWlLk6GJQsqaUBKTNV-1">
          <mxGeometry x="155" y="150" width="30" height="60" as="geometry" />
        </mxCell>
        <mxCell id="hak3TevOIR2K7441Awrj-49" style="edgeStyle=orthogonalEdgeStyle;rounded=0;orthogonalLoop=1;jettySize=auto;html=1;exitX=0;exitY=0;exitDx=70;exitDy=80;exitPerimeter=0;entryX=0.5;entryY=0;entryDx=0;entryDy=0;" edge="1" parent="WIyWlLk6GJQsqaUBKTNV-1" source="hak3TevOIR2K7441Awrj-34" target="hak3TevOIR2K7441Awrj-30">
          <mxGeometry relative="1" as="geometry" />
        </mxCell>
        <mxCell id="hak3TevOIR2K7441Awrj-50" style="edgeStyle=orthogonalEdgeStyle;rounded=0;orthogonalLoop=1;jettySize=auto;html=1;" edge="1" parent="WIyWlLk6GJQsqaUBKTNV-1" source="hak3TevOIR2K7441Awrj-34" target="hak3TevOIR2K7441Awrj-51">
          <mxGeometry relative="1" as="geometry">
            <mxPoint x="490" y="180" as="targetPoint" />
          </mxGeometry>
        </mxCell>
        <mxCell id="hak3TevOIR2K7441Awrj-34" value="Login user" style="shape=cube;whiteSpace=wrap;html=1;boundedLbl=1;backgroundOutline=1;darkOpacity=0.05;darkOpacity2=0.1;" vertex="1" parent="WIyWlLk6GJQsqaUBKTNV-1">
          <mxGeometry x="330" y="140" width="120" height="80" as="geometry" />
        </mxCell>
        <mxCell id="hak3TevOIR2K7441Awrj-35" value="" style="endArrow=classic;html=1;rounded=0;entryX=0;entryY=0.5;entryDx=0;entryDy=0;entryPerimeter=0;" edge="1" parent="WIyWlLk6GJQsqaUBKTNV-1" target="hak3TevOIR2K7441Awrj-34">
          <mxGeometry width="50" height="50" relative="1" as="geometry">
            <mxPoint x="200" y="180" as="sourcePoint" />
            <mxPoint x="340" y="300" as="targetPoint" />
          </mxGeometry>
        </mxCell>
        <mxCell id="hak3TevOIR2K7441Awrj-41" value="1" style="text;align=center;fontStyle=1;verticalAlign=middle;spacingLeft=3;spacingRight=3;strokeColor=none;rotatable=0;points=[[0,0.5],[1,0.5]];portConstraint=eastwest;html=1;" vertex="1" parent="WIyWlLk6GJQsqaUBKTNV-1">
          <mxGeometry x="230" y="150" width="80" height="26" as="geometry" />
        </mxCell>
        <mxCell id="hak3TevOIR2K7441Awrj-45" value="Validate&amp;nbsp;&lt;div&gt;user credentials&lt;/div&gt;" style="text;align=center;fontStyle=1;verticalAlign=middle;spacingLeft=3;spacingRight=3;strokeColor=none;rotatable=0;points=[[0,0.5],[1,0.5]];portConstraint=eastwest;html=1;" vertex="1" parent="WIyWlLk6GJQsqaUBKTNV-1">
          <mxGeometry x="414" y="250" width="80" height="26" as="geometry" />
        </mxCell>
        <mxCell id="hak3TevOIR2K7441Awrj-46" value="Validate" style="rhombus;whiteSpace=wrap;html=1;fontColor=#000000;fillColor=#ffffc0;strokeColor=#ff0000;" vertex="1" parent="WIyWlLk6GJQsqaUBKTNV-1">
          <mxGeometry x="570" y="290" width="80" height="40" as="geometry" />
        </mxCell>
        <mxCell id="hak3TevOIR2K7441Awrj-47" value="no" style="edgeStyle=orthogonalEdgeStyle;html=1;align=left;verticalAlign=bottom;endArrow=open;endSize=8;strokeColor=#ff0000;rounded=0;" edge="1" source="hak3TevOIR2K7441Awrj-46" parent="WIyWlLk6GJQsqaUBKTNV-1">
          <mxGeometry x="-1" relative="1" as="geometry">
            <mxPoint x="750" y="310" as="targetPoint" />
          </mxGeometry>
        </mxCell>
        <mxCell id="hak3TevOIR2K7441Awrj-48" value="yes" style="edgeStyle=orthogonalEdgeStyle;html=1;align=left;verticalAlign=top;endArrow=open;endSize=8;strokeColor=#ff0000;rounded=0;" edge="1" source="hak3TevOIR2K7441Awrj-46" parent="WIyWlLk6GJQsqaUBKTNV-1">
          <mxGeometry x="-1" relative="1" as="geometry">
            <mxPoint x="610" y="390" as="targetPoint" />
          </mxGeometry>
        </mxCell>
        <mxCell id="hak3TevOIR2K7441Awrj-52" style="edgeStyle=orthogonalEdgeStyle;rounded=0;orthogonalLoop=1;jettySize=auto;html=1;entryX=0.5;entryY=0;entryDx=0;entryDy=0;" edge="1" parent="WIyWlLk6GJQsqaUBKTNV-1" source="hak3TevOIR2K7441Awrj-51" target="hak3TevOIR2K7441Awrj-46">
          <mxGeometry relative="1" as="geometry" />
        </mxCell>
        <mxCell id="hak3TevOIR2K7441Awrj-51" value="LoginResponse" style="html=1;whiteSpace=wrap;" vertex="1" parent="WIyWlLk6GJQsqaUBKTNV-1">
          <mxGeometry x="510" y="155" width="110" height="50" as="geometry" />
        </mxCell>
        <mxCell id="hak3TevOIR2K7441Awrj-53" value="" style="ellipse;html=1;shape=endState;fillColor=#000000;strokeColor=#ff0000;" vertex="1" parent="WIyWlLk6GJQsqaUBKTNV-1">
          <mxGeometry x="750" y="295" width="30" height="30" as="geometry" />
        </mxCell>
        <mxCell id="hak3TevOIR2K7441Awrj-54" value="Direct to account page" style="ellipse;whiteSpace=wrap;html=1;" vertex="1" parent="WIyWlLk6GJQsqaUBKTNV-1">
          <mxGeometry x="540" y="390" width="140" height="70" as="geometry" />
        </mxCell>
      </root>
    </mxGraphModel>
  </diagram>
</mxfile>
